<?xml version="1.0" encoding="utf-8"?>
<!-- Generator: Adobe Illustrator 15.0.0, SVG Export Plug-In . SVG Version: 6.00 Build 0)  -->
<!DOCTYPE svg PUBLIC "-//W3C//DTD SVG 1.1//EN" "http://www.w3.org/Graphics/SVG/1.1/DTD/svg11.dtd">
<svg version="1.1" id="Capa_1" xmlns="http://www.w3.org/2000/svg" xmlns:xlink="http://www.w3.org/1999/xlink" x="0px" y="0px"
	 width="512px" height="512px" viewBox="0 0 512 512" enable-background="new 0 0 512 512" xml:space="preserve">
<g>
	<path fill="#FF4D4D" d="M173.208,60.248c-24.884,0-45.128,20.244-45.128,45.127v45.129h90.256v-45.129
		C218.336,80.493,198.092,60.248,173.208,60.248z"/>
	<path fill="#7DD5F4" d="M454.498,150.622H316.309v120.38h170.056L454.498,150.622z"/>
	<path fill="#E5F2FA" d="M512,240.995v165.569h-67.716V391.56h-90.382v15.004H158.097V391.56H67.716v15.004H0V120.496h346.311
		v120.499H512z"/>
	<path fill="#CEE9F8" d="M512,240.995v165.569h-67.716V391.56h-90.382v15.004H218.341V120.496h127.969v120.499H512z"/>
	<path fill="#FF4D4D" d="M271.063,218.339v60.254h-22.595v22.595h-60.244v-22.595h-22.595v-60.254h22.595v-22.585h60.244v22.585
		H271.063z"/>
	<path fill="#CC295F" d="M271.063,218.339v60.254h-22.595v22.595h-30.127V195.754h30.127v22.585H271.063z"/>
	<path fill="#FF4D4D" d="M0,203.335h97.843v30.007H0V203.335z"/>
	<path fill="#FF4D4D" d="M0,263.59h97.843v30.007H0V263.59z"/>
	<circle fill="#E5F2FA" cx="112.907" cy="391.561" r="45.187"/>
	<circle fill="#CEE9F8" cx="399.093" cy="391.561" r="45.187"/>
	<path fill="#3368C6" d="M112.907,451.752c-33.189,0-60.191-27.001-60.191-60.19s27.001-60.19,60.191-60.19
		c33.189,0,60.19,27.001,60.19,60.19C173.098,424.75,146.096,451.752,112.907,451.752z M112.907,361.378
		c-16.644,0-30.184,13.54-30.184,30.184s13.54,30.184,30.184,30.184c16.643,0,30.183-13.54,30.183-30.184
		S129.55,361.378,112.907,361.378z"/>
	<path fill="#3368C6" d="M399.093,451.752c-33.188,0-60.19-27.001-60.19-60.19s27.002-60.19,60.19-60.19
		c33.189,0,60.19,27.001,60.19,60.19C459.282,424.75,432.281,451.752,399.093,451.752z M399.093,361.378
		c-16.644,0-30.183,13.54-30.183,30.184s13.539,30.184,30.183,30.184s30.184-13.54,30.184-30.184
		C429.275,374.918,415.735,361.378,399.093,361.378z"/>
</g>
</svg>
