<?xml version="1.0" encoding="utf-8"?>
<!-- Generator: Adobe Illustrator 15.0.0, SVG Export Plug-In . SVG Version: 6.00 Build 0)  -->
<!DOCTYPE svg PUBLIC "-//W3C//DTD SVG 1.1//EN" "http://www.w3.org/Graphics/SVG/1.1/DTD/svg11.dtd">
<svg version="1.1" id="Flat" xmlns="http://www.w3.org/2000/svg" xmlns:xlink="http://www.w3.org/1999/xlink" x="0px" y="0px"
	 width="512px" height="512px" viewBox="0 0 512 512" enable-background="new 0 0 512 512" xml:space="preserve">
<g>
	<path fill="#EBF7FF" d="M468,248h-60l-48,48l-16-48H192V40h276c11.046,0,20,8.954,20,20v168C488,239.046,479.046,248,468,248z"/>
	<g>
		<path fill="#FDBF67" d="M265.37,230.063c12.185-18.441,7.112-43.267-11.329-55.452c-1.916-1.266-3.937-2.364-6.041-3.283V84
			c0-33.137-26.863-60-60-60h-56c-33.137,0-60,26.863-60,60v87.328c-20.254,8.848-29.501,32.439-20.654,52.693
			c0.919,2.104,2.018,4.125,3.284,6.042c-27.577,14.01-38.575,47.722-24.565,75.298c14.01,27.577,47.722,38.575,75.299,24.565
			c5.43-2.759,10.374-6.385,14.637-10.734c21.645,22.091,57.101,22.453,79.192,0.808c0.272-0.267,0.542-0.536,0.808-0.808
			c21.66,22.076,57.115,22.414,79.192,0.754c22.077-21.659,22.415-57.115,0.755-79.192
			C275.699,236.424,270.775,232.814,265.37,230.063L265.37,230.063z"/>
		<path fill="#3368C6" d="M24,488V332.8c0-7.801,4.536-14.891,11.619-18.16L128,272h64l92.381,42.637
			c7.084,3.27,11.621,10.361,11.619,18.163V488H24z"/>
		<path fill="#FAFDFF" d="M208,488h-96V336l48-8l48,8V488z"/>
		<path fill="#031B4E" d="M184,344l-24-8l-24,8l16,40l-16,104h48l-16-104L184,344z"/>
		<path fill="#FFD4CF" d="M208,280l-48,56l-48-56l16-56h64L208,280z"/>
		<path fill="#FBB8B0" d="M197.022,241.576L192,224h-64l-5.07,17.743l20.914,10.457c10.193,5.096,22.197,5.065,32.363-0.083
			L197.022,241.576z"/>
		<path fill="#FFD4CF" d="M244,120h-36l-24-40l-24,40H96v71.848c0,11.363,6.42,21.751,16.584,26.833L151,237.889
			c5.663,2.831,12.331,2.814,17.979-0.046l38.575-19.534C217.642,213.2,224,202.853,224,191.545V176h20c11.046,0,20-8.954,20-20v-16
			C264,128.954,255.046,120,244,120z"/>
		<path fill="#AE7069" d="M120,136h16v24h-16V136z"/>
		<path fill="#AE7069" d="M184,136h16v24h-16V136z"/>
		<path fill="#3368C6" d="M97.779,185.037C96.767,184.924,96,184.069,96,183.05V120H76c-11.046,0-20,8.954-20,20v16
			c0,11.046,8.954,20,20,20h4v7.05c-0.008,9.175,6.893,16.885,16.012,17.889l63.1,7.012l1.766-15.9L97.779,185.037z"/>
	</g>
	<g>
		<path fill="#FAFDFF" d="M208,280l-48,56l72,16L208,280z"/>
		<path fill="#FAFDFF" d="M88,352l72-16l-48-56L88,352z"/>
	</g>
	<g>
		<g>
			<path fill="#80DAFF" d="M296,376h144v32l26.142,26.142c3.751,3.751,5.858,8.838,5.858,14.143V468c0,11.046-8.954,20-20,20H284
				c-11.046,0-20-8.954-20-20v-19.716c0-5.305,2.107-10.392,5.857-14.143L296,408V376z"/>
			<path fill="#66D2FF" d="M440,408v-32H296v32l-24,24h18.813c14.403,0.011,27.424-8.574,33.088-21.818l6.754-15.758
				c0.631-1.471,2.076-2.424,3.677-2.424h67.338c1.601,0,3.047,0.953,3.677,2.424l6.753,15.757
				c5.664,13.244,18.685,21.831,33.089,21.819H464L440,408z"/>
			<path fill="#80DAFF" d="M320,336h96l58.325,19.442c8.166,2.722,13.675,10.364,13.675,18.973V396c0,11.046-8.954,20-20,20h-22.813
				c-8,0-15.231-4.769-18.383-12.122l-6.753-15.756C416.9,380.769,409.67,376,401.669,376h-67.338
				c-8.001,0-15.231,4.769-18.383,12.122l-6.748,15.756c-3.152,7.355-10.386,12.124-18.388,12.122H268c-11.046,0-20-8.954-20-20
				v-21.585c0-8.608,5.509-16.251,13.675-18.973L320,336z"/>
		</g>
		<circle fill="#FAFDFF" cx="368" cy="448" r="40"/>
	</g>
</g>
<path fill="#031B4E" d="M416,128h-40V88h-32v40h-40v32h40v40h32v-40h40V128z"/>
</svg>
