<?xml version="1.0" encoding="utf-8"?>
<!-- Generator: Adobe Illustrator 15.0.0, SVG Export Plug-In . SVG Version: 6.00 Build 0)  -->
<!DOCTYPE svg PUBLIC "-//W3C//DTD SVG 1.1//EN" "http://www.w3.org/Graphics/SVG/1.1/DTD/svg11.dtd">
<svg version="1.1" id="Capa_1" xmlns="http://www.w3.org/2000/svg" xmlns:xlink="http://www.w3.org/1999/xlink" x="0px" y="0px"
	 width="512px" height="512px" viewBox="0 0 512 512" enable-background="new 0 0 512 512" xml:space="preserve">
<g>
	<g>
		<path fill="#DDDAEC" d="M57.059,223.958c10.597,10.421,24.717,12.946,41.274-3.64c5.93-20.784,16.703-40.482,32.35-57.303
			l-7.838-25.188c-0.029-0.059-22.369,0.029-22.398,0C77.696,162.868,63.253,192.752,57.059,223.958L57.059,223.958z"/>
	</g>
	<g>
		<path fill="#DDDAEC" d="M106.552,387.06c24.688,24.689,54.748,40.718,86.422,48.145c16.322-8.748,22.339-23.603,2.994-39.807
			c-22.574-6.342-43.857-18.378-61.617-36.138c-8.278-8.277-15.323-17.319-21.106-26.89c-15.294-11.713-29.796-9.247-40.833,7.222
			C80.896,356.736,92.285,372.793,106.552,387.06L106.552,387.06z"/>
	</g>
	<g>
		<path fill="#365E7D" d="M192.974,435.204v34.023l41.391,11.537l41.332-11.537v-33.993v-24.396c0-5.431-1.057-10.656-2.994-15.412
			c-6.135-15.177-21.048-25.951-38.367-25.951c-17.29,0-32.203,10.774-38.367,25.922c-1.937,4.784-2.994,9.98-2.994,15.44
			L192.974,435.204L192.974,435.204z"/>
	</g>
	<g>
		<path fill="#DDDAEC" d="M275.697,435.234c31.703-7.428,61.793-23.456,86.48-48.174c15.764-15.764,27.977-33.671,36.694-52.812
			l-23.925-12.476l-20.607,12.476c-5.548,8.895-12.212,17.291-19.932,25.011c-17.789,17.79-39.102,29.826-61.705,36.167
			C262.957,405.73,266.715,422.493,275.697,435.234L275.697,435.234z"/>
	</g>
	<g>
		<path fill="#F9F7F8" d="M60.963,66.051l38.426,32.057l23.455-10.216l4.257-23.015L88.675,32.791L67.157,44.034L60.963,66.051z"/>
	</g>
	<g>
		<path fill="#3368C6" d="M192.974,469.228H47.019c-4.345,0-7.926,3.581-7.926,7.927v26.92c0,4.345,3.581,7.926,7.926,7.926h374.633
			c4.345,0,7.926-3.581,7.926-7.926v-26.92c0-4.346-3.581-7.927-7.926-7.927H275.697H192.974z"/>
	</g>
	<g>
		<path fill="#3368C6" d="M68.713,5.842L30.845,51.226c-5.754,6.899-4.814,17.232,2.055,22.956
			c6.898,5.754,17.232,4.814,22.985-2.055l5.078-6.077l27.711-33.26l5.078-6.077c5.754-6.869,4.814-17.203-2.055-22.956
			C88.645,1.233,84.947,0,81.277,0h-0.029C76.58,0,71.942,1.996,68.713,5.842z"/>
	</g>
	<g>
		<path fill="#365E7D" d="M284.65,199.915l-23.426,5.49l-0.675,23.397l20.843,17.379c7.955,6.634,19.168,4.932,26.479-2.378
			c7.309-7.31,5.548-19.874-2.378-26.479L284.65,199.915z"/>
	</g>
	<g>
		<path fill="#F9F7F8" d="M234.512,237.99c5.959,4.961,14.912,4.169,19.874-1.791l6.165-7.398l24.102-28.886l6.164-7.398
			c4.961-5.93,4.168-14.884-1.791-19.845l-16.027-13.386l-38.632,15.03l-15.852,50.316L234.512,237.99z"/>
	</g>
	<g>
		<path fill="#3368C6" d="M130.682,163.015l78.115,65.112c2.202,1.849,5.519,1.556,7.368-0.675l2.348-2.818l54.483-65.347
			l2.348-2.818c1.85-2.231,1.557-5.548-0.675-7.368l-21.371-17.819L166.436,58.89c-11.126-9.306-27.858-7.779-37.164,3.376
			l-2.172,2.613L99.389,98.108l-2.202,2.642c-9.247,11.097-7.779,27.742,3.258,37.077
			C110.045,146.34,120.76,154.736,130.682,163.015z"/>
	</g>
	<g>
		<path fill="#365E7D" d="M463.366,289.598H257.292c-2.877,0-5.255,2.584-5.255,5.725v33.202c0,3.141,2.378,5.724,5.255,5.724
			h227.797c2.877,0,5.226-2.583,5.226-5.724v-9.424C490.314,302.867,478.19,289.598,463.366,289.598z"/>
	</g>
	<g>
		<path fill="#2B4D66" d="M490.314,328.524v-9.424c0-4.139-0.764-8.072-2.173-11.625c-4.168-10.509-13.709-17.878-24.775-17.878
			h-40.481c14.854,0,26.979,13.27,26.979,29.503v9.424c0,3.141-2.349,5.724-5.255,5.724h40.48c1.116,0,2.172-0.411,3.053-1.086
			C489.463,332.135,490.314,330.432,490.314,328.524z"/>
	</g>
	<g>
		<path fill="#2B4D66" d="M275.697,410.839c0-5.431-1.057-10.656-2.994-15.412c-6.135-15.177-21.048-25.951-38.367-25.951
			c-5.959,0-11.654,1.292-16.791,3.581c9.775,4.374,17.584,12.418,21.606,22.369c1.937,4.756,2.994,9.981,2.994,15.412v24.396
			v33.993h33.553v-33.993L275.697,410.839L275.697,410.839z"/>
	</g>
	<g>
		<path fill="#285AA3" d="M429.578,504.074v-26.92c0-4.346-3.581-7.927-7.926-7.927H388.1c4.344,0,7.926,3.581,7.926,7.927v26.92
			c0,4.345-3.582,7.926-7.926,7.926h33.553C425.997,512,429.578,508.419,429.578,504.074z"/>
	</g>
	<g>
		<path fill="#285AA3" d="M93.753,26.714c5.754-6.869,4.814-17.203-2.055-22.956C88.645,1.233,84.947,0,81.277,0h-0.029
			c-4.667,0-9.306,1.996-12.535,5.842L53.448,24.131c3.2-3.816,7.838-5.783,12.505-5.783h0.029c3.669,0,7.368,1.233,10.392,3.758
			c4.286,3.581,6.282,8.924,5.783,14.12c-0.323,3.112-1.526,6.194-3.669,8.807v-0.029l10.186-12.212L93.753,26.714z"/>
	</g>
	<g>
		<path fill="#285AA3" d="M253.299,131.281l-86.862-72.392c-11.126-9.306-27.858-7.779-37.164,3.376l-2.172,2.613l-12.564,15.089
			c3.112-3.493,6.957-5.989,11.155-7.398c8.425-2.877,18.142-1.438,25.451,4.638l86.862,72.422l19.052,15.852l2.319,1.967
			c2.202,1.82,2.495,5.137,0.675,7.339l-2.378,2.848h0.029l15.294-18.348l2.348-2.818c1.85-2.231,1.557-5.548-0.675-7.368
			L253.299,131.281z"/>
	</g>
	<g>
		<path fill="#DDDAEC" d="M290.814,192.517c4.961-5.93,4.168-14.884-1.791-19.845l-16.027-13.386l-15.294,18.348l16.028,13.386
			c3.17,2.642,4.873,6.429,5.02,10.275c0.146,3.376-0.91,6.781-3.229,9.57l0.028-0.029l9.101-10.92L290.814,192.517z"/>
	</g>
	<g>
		<path fill="#2B4D66" d="M275.551,210.836c0,0,0,0-0.029,0.029L275.551,210.836z M305.493,217.323l-20.843-17.408l-9.1,10.92
			l-0.029,0.029l20.842,17.379c5.725,4.785,8.25,12.652,6.459,19.404c1.82-1.027,3.523-2.319,5.049-3.846
			C315.18,236.493,313.419,223.928,305.493,217.323L305.493,217.323z"/>
	</g>
	<g>
		<path fill="#DDDAEC" d="M127.101,64.877L88.675,32.791l-9.1,10.95l38.426,32.056h-0.03L127.101,64.877z"/>
	</g>
	<g>
		<path fill="#365E7D" d="M39.563,322.594c9.276,9.277,20.813,14.942,32.849,16.997c13.826,2.378,28.328-0.028,40.833-7.222
			c4.55-2.643,8.836-5.901,12.711-9.776c23.866-23.866,23.866-62.558,0-86.395c-7.926-7.956-17.496-13.24-27.623-15.882
			c-13.65-3.611-28.299-2.378-41.274,3.64c-6.341,2.936-12.271,7.016-17.496,12.242C15.727,260.036,15.727,298.729,39.563,322.594
			L39.563,322.594z"/>
	</g>
	<g>
		<path fill="#F9F7F8" d="M65.014,297.143c9.805,9.806,25.686,9.806,35.491,0c9.834-9.805,9.834-25.687,0-35.521
			c-9.805-9.805-25.686-9.805-35.491,0C55.21,271.456,55.21,287.309,65.014,297.143z"/>
	</g>
	<g>
		<path fill="#2B4D66" d="M125.956,322.594c23.866-23.867,23.866-62.558,0-86.395c-7.926-7.956-17.496-13.24-27.623-15.882
			c-8.219-2.172-16.821-2.583-25.187-1.262c5.842,1.908,11.419,4.697,16.556,8.396c2.671,1.908,5.225,4.081,7.632,6.458
			c23.866,23.866,23.866,62.558,0,86.424c-3.875,3.875-8.161,7.134-12.711,9.746c-6.546,3.787-13.621,6.223-20.872,7.368
			c2.847,0.938,5.724,1.644,8.66,2.143c13.826,2.378,28.328-0.029,40.833-7.222C117.795,329.729,122.081,326.469,125.956,322.594
			L125.956,322.594z"/>
	</g>
	<g>
		<path fill="#DDDAEC" d="M100.505,297.143c9.834-9.805,9.834-25.687,0-35.521c-7.574-7.574-18.817-9.306-28.064-5.137
			c2.495,1.205,4.844,2.818,6.899,4.902c9.834,9.805,9.834,25.688,0,35.492c-2.202,2.23-4.726,3.934-7.427,5.167
			C81.248,306.507,92.784,304.893,100.505,297.143z"/>
	</g>
	<g>
		<path d="M234.365,427.108c-1.989,0-3.976-0.764-5.487-2.287c-3.004-3.03-3.012-7.952,0.018-10.956
			c3.031-3.006,7.893-3.014,10.898,0.018l0.058,0.06c3.004,3.029,2.983,7.922-0.047,10.927
			C238.298,426.362,236.331,427.108,234.365,427.108L234.365,427.108z"/>
	</g>
</g>
</svg>
